<?xml version="1.0" encoding="utf-8"?>
<!-- Generator: Adobe Illustrator 24.0.1, SVG Export Plug-In . SVG Version: 6.00 Build 0)  -->
<svg version="1.1" id="Layer_1" xmlns="http://www.w3.org/2000/svg" xmlns:xlink="http://www.w3.org/1999/xlink" x="0px" y="0px"
	 viewBox="0 0 150 150" style="enable-background:new 0 0 150 150;" xml:space="preserve">
<g>
	<path d="M20.3,62.5v24.9h-4.5V62.5H20.3z"/>
	<path d="M29.6,87.4h-4.2V76.9c0-2.5,0-4.7-0.1-6.4h4v2.7c0.6-1,1.3-1.7,2.1-2.3c0.8-0.6,1.9-0.8,3.3-0.8c1.2,0,2.2,0.2,3,0.7
		c0.8,0.4,1.5,1,1.9,1.6c0.5,0.6,0.8,1.3,0.9,2.1c0.2,0.7,0.3,2,0.3,3.7v9.1h-4.2v-9.1c0-1.1-0.1-2-0.3-2.5c-0.2-0.6-0.6-1-1.1-1.3
		c-0.5-0.3-1.1-0.5-1.8-0.5c-0.8,0-1.6,0.2-2.2,0.7c-0.6,0.4-1.1,1.1-1.4,1.9c-0.2,0.6-0.3,1.7-0.3,3.2
		C29.6,79.7,29.6,87.4,29.6,87.4z"/>
	<path d="M61.1,70.5l-6.6,16.8H50l-6.9-16.8h4.6l3.5,8.9c0.3,0.9,0.7,2.2,1.2,3.9c0.3-1.5,0.6-2.6,0.9-3.4l3.5-9.4L61.1,70.5
		L61.1,70.5z"/>
	<path d="M65.7,62.2c0.7,0,1.3,0.3,1.8,0.8c0.5,0.5,0.8,1.1,0.8,1.8c0,0.7-0.3,1.4-0.8,1.9s-1.1,0.8-1.8,0.8c-0.7,0-1.3-0.3-1.8-0.8
		c-0.5-0.5-0.8-1.1-0.8-1.8s0.3-1.3,0.8-1.8C64.4,62.4,65,62.2,65.7,62.2z M67.8,70.5v16.8h-4.2V70.5H67.8z"/>
	<path d="M84.3,72.5l-2.8,2.6C81,74.4,80.5,74,80,73.7c-0.5-0.3-1.1-0.4-1.8-0.4c-0.8,0-1.3,0.2-1.8,0.6c-0.4,0.4-0.7,0.8-0.7,1.3
		c0,0.3,0.1,0.6,0.3,0.9c0.2,0.3,0.5,0.5,0.8,0.6c0.4,0.2,1.1,0.3,2.1,0.5c1.6,0.3,2.7,0.7,3.5,1.1c0.8,0.4,1.3,0.9,1.8,1.7
		s0.6,1.5,0.6,2.4c0,1-0.3,2-0.8,2.8c-0.5,0.8-1.3,1.5-2.4,2s-2.4,0.8-4,0.8c-1.6,0-2.9-0.2-4-0.7s-2-1.1-2.7-1.9l2.8-2.7
		c0.7,0.8,1.3,1.3,1.9,1.6c0.6,0.3,1.3,0.5,2.1,0.5c0.9,0,1.6-0.2,2.1-0.6s0.7-0.9,0.7-1.4c0-0.3-0.1-0.7-0.3-0.9
		c-0.2-0.3-0.4-0.5-0.7-0.6c-0.3-0.2-0.8-0.3-1.5-0.4c-1.7-0.3-3-0.7-3.8-1.1c-0.8-0.4-1.5-0.9-1.9-1.6c-0.5-0.7-0.7-1.5-0.7-2.5
		c0-1.5,0.6-2.8,1.8-3.9c1.2-1,2.8-1.6,4.9-1.6c1.4,0,2.7,0.3,3.9,0.8C83,71.2,83.7,71.8,84.3,72.5z"/>
	<path d="M90.4,62.2c0.7,0,1.3,0.3,1.9,0.8c0.5,0.5,0.8,1.1,0.8,1.8c0,0.7-0.3,1.4-0.8,1.9c-0.5,0.5-1.1,0.8-1.8,0.8
		c-0.7,0-1.3-0.3-1.8-0.8c-0.5-0.5-0.8-1.1-0.8-1.8s0.3-1.3,0.8-1.8C89,62.4,89.6,62.2,90.4,62.2z M92.5,70.5v16.8h-4.2V70.5H92.5z"
		/>
	<path d="M114.7,79.4c0,0.7-0.2,1.5-0.4,2.6c-0.3,1-0.8,2-1.6,2.9c-0.8,0.9-1.8,1.6-2.9,2.1s-2.6,0.8-4.3,0.8
		c-2.7,0-4.9-0.8-6.5-2.5s-2.5-3.8-2.5-6.5c0-2.7,0.9-4.8,2.7-6.5c1.8-1.6,3.9-2.4,6.5-2.4c1.4,0,2.7,0.2,3.9,0.7s2.2,1.2,3.1,2.2
		c0.8,1,1.4,2.1,1.8,3.3C114.6,77,114.7,78.1,114.7,79.4z M110.5,79.1c0-1.5-0.4-2.8-1.2-3.9c-0.8-1-2-1.5-3.6-1.5
		c-1.4,0-2.6,0.5-3.5,1.4c-0.9,1-1.4,2.2-1.4,3.8c0,1.6,0.4,2.9,1.4,3.8s2.1,1.4,3.4,1.4c1,0,1.9-0.2,2.7-0.7
		c0.8-0.5,1.4-1.1,1.8-1.9C110.3,80.8,110.5,80,110.5,79.1z"/>
	<path d="M122.9,87.4h-4.2V76.9c0-2.5,0-4.7-0.1-6.4h4v2.7c0.6-1,1.3-1.7,2.1-2.3c0.8-0.6,1.9-0.8,3.3-0.8c1.2,0,2.2,0.2,3,0.7
		c0.8,0.4,1.5,1,1.9,1.6c0.5,0.6,0.8,1.3,0.9,2.1c0.2,0.7,0.3,2,0.3,3.7v9.1H130v-9.1c0-1.1-0.1-2-0.3-2.5c-0.2-0.6-0.6-1-1.1-1.3
		c-0.5-0.3-1.1-0.5-1.8-0.5c-0.8,0-1.6,0.2-2.2,0.7c-0.7,0.4-1.1,1.1-1.4,1.9c-0.2,0.6-0.3,1.7-0.3,3.2
		C122.9,79.7,122.9,87.4,122.9,87.4z"/>
</g>
</svg>
