<?xml version="1.0" encoding="utf-8"?>
<!-- Generator: Adobe Illustrator 24.0.1, SVG Export Plug-In . SVG Version: 6.00 Build 0)  -->
<svg version="1.1" id="Layer_1" xmlns="http://www.w3.org/2000/svg" xmlns:xlink="http://www.w3.org/1999/xlink" x="0px" y="0px"
	 viewBox="0 0 118.31 25.7" style="enable-background:new 0 0 118.31 25.7;" xml:space="preserve">
<g>
	<path d="M4.48,0.34v24.87H0V0.34H4.48z"/>
	<path d="M13.74,25.21h-4.2V14.77c0-2.55-0.02-4.68-0.05-6.39h4v2.73c0.56-0.95,1.26-1.69,2.12-2.25c0.85-0.55,1.95-0.83,3.3-0.83
		c1.17,0,2.17,0.22,3,0.67c0.83,0.44,1.47,0.99,1.92,1.62c0.46,0.64,0.76,1.33,0.92,2.07c0.17,0.74,0.26,1.98,0.26,3.73v9.09h-4.2
		v-9.06c0-1.13-0.11-1.97-0.32-2.53c-0.21-0.56-0.57-1-1.08-1.34c-0.51-0.33-1.1-0.5-1.77-0.5c-0.84,0-1.59,0.22-2.24,0.67
		c-0.65,0.44-1.11,1.06-1.37,1.86c-0.19,0.59-0.29,1.66-0.29,3.2V25.21z"/>
	<path d="M45.22,8.37l-6.6,16.83h-4.51L27.22,8.37h4.63l3.5,8.87c0.35,0.89,0.74,2.18,1.16,3.86c0.32-1.46,0.62-2.58,0.91-3.37
		l3.49-9.37H45.22z"/>
	<path d="M49.89,0c0.73,0,1.35,0.26,1.85,0.77c0.51,0.51,0.76,1.13,0.76,1.85c0,0.73-0.26,1.35-0.77,1.85s-1.13,0.76-1.85,0.76
		c-0.73,0-1.35-0.25-1.85-0.76s-0.76-1.13-0.76-1.85c0-0.72,0.25-1.33,0.76-1.85S49.16,0,49.89,0z M51.99,8.37v16.83h-4.2V8.37
		H51.99z"/>
	<path d="M68.44,10.36l-2.82,2.56c-0.44-0.62-0.92-1.07-1.43-1.37c-0.51-0.3-1.1-0.45-1.79-0.45c-0.75,0-1.34,0.19-1.78,0.56
		c-0.43,0.38-0.65,0.8-0.65,1.28c0,0.33,0.09,0.62,0.27,0.88c0.18,0.26,0.46,0.46,0.84,0.62c0.38,0.15,1.07,0.33,2.08,0.54
		c1.55,0.32,2.71,0.67,3.47,1.07c0.76,0.39,1.35,0.94,1.77,1.65c0.42,0.71,0.62,1.5,0.62,2.39c0,1.03-0.26,1.95-0.77,2.79
		s-1.31,1.5-2.39,2.01c-1.08,0.51-2.43,0.76-4.03,0.76c-1.59,0-2.92-0.24-3.97-0.72s-1.96-1.13-2.71-1.95l2.79-2.65
		c0.65,0.75,1.28,1.29,1.88,1.61c0.6,0.32,1.29,0.48,2.07,0.48c0.91,0,1.6-0.2,2.07-0.59c0.47-0.39,0.7-0.86,0.7-1.39
		c0-0.34-0.09-0.65-0.26-0.92c-0.18-0.27-0.42-0.48-0.73-0.63c-0.31-0.15-0.8-0.3-1.49-0.44c-1.73-0.34-3-0.7-3.82-1.07
		s-1.45-0.91-1.91-1.61c-0.46-0.7-0.69-1.53-0.69-2.49c0-1.54,0.59-2.83,1.77-3.87c1.18-1.04,2.83-1.56,4.95-1.56
		c1.45,0,2.73,0.27,3.86,0.8C67.14,9.04,67.84,9.6,68.44,10.36z"/>
	<path d="M74.51,0c0.73,0,1.35,0.26,1.86,0.77c0.51,0.51,0.76,1.13,0.76,1.85c0,0.73-0.26,1.35-0.77,1.85
		c-0.51,0.51-1.13,0.76-1.85,0.76c-0.73,0-1.35-0.25-1.85-0.76c-0.51-0.51-0.76-1.13-0.76-1.85c0-0.72,0.25-1.33,0.76-1.85
		C73.16,0.26,73.78,0,74.51,0z M76.61,8.37v16.83h-4.2V8.37H76.61z"/>
	<path d="M98.88,17.28c0,0.67-0.15,1.54-0.45,2.59c-0.3,1.05-0.84,2.03-1.62,2.91c-0.78,0.89-1.76,1.6-2.94,2.13
		c-1.18,0.53-2.61,0.79-4.3,0.79c-2.7,0-4.88-0.83-6.53-2.48c-1.65-1.65-2.48-3.81-2.48-6.48c0-2.69,0.89-4.85,2.67-6.47
		c1.78-1.62,3.95-2.44,6.53-2.44c1.4,0,2.7,0.23,3.89,0.7c1.19,0.47,2.21,1.18,3.05,2.15c0.84,0.97,1.45,2.09,1.83,3.35
		C98.76,14.85,98.88,15.92,98.88,17.28z M94.61,16.97c0-1.55-0.41-2.84-1.22-3.86c-0.82-1.03-2.03-1.54-3.63-1.54
		c-1.41,0-2.59,0.48-3.52,1.44c-0.94,0.96-1.4,2.24-1.4,3.82c0,1.58,0.45,2.85,1.36,3.8s2.05,1.43,3.43,1.43
		c0.99,0,1.88-0.23,2.66-0.7c0.78-0.47,1.36-1.09,1.75-1.88C94.42,18.7,94.61,17.86,94.61,16.97z"/>
	<path d="M107.05,25.21h-4.2V14.77c0-2.55-0.02-4.68-0.05-6.39h4v2.73c0.56-0.95,1.26-1.69,2.12-2.25c0.85-0.55,1.95-0.83,3.3-0.83
		c1.17,0,2.17,0.22,3,0.67c0.83,0.44,1.47,0.99,1.92,1.62c0.46,0.64,0.76,1.33,0.92,2.07c0.17,0.74,0.26,1.98,0.26,3.73v9.09h-4.2
		v-9.06c0-1.13-0.11-1.97-0.32-2.53c-0.21-0.56-0.57-1-1.08-1.34c-0.51-0.33-1.1-0.5-1.77-0.5c-0.84,0-1.59,0.22-2.24,0.67
		c-0.65,0.44-1.11,1.06-1.37,1.86c-0.19,0.59-0.29,1.66-0.29,3.2V25.21z"/>
</g>
</svg>
